<?xml version="1.0" encoding="UTF-8"?>
<svg xmlns="http://www.w3.org/2000/svg" xmlns:xlink="http://www.w3.org/1999/xlink" width="337px" height="239px" viewBox="0 0 336 239" version="1.1">
<g id="surface1">
<path style=" stroke:none;fill-rule:nonzero;fill:rgb(100%,28.235294%,0%);fill-opacity:1;" d="M 295.113281 73.003906 C 295.113281 65.398438 290.332031 63.683594 285 62.472656 C 284.753906 62.417969 284.355469 62.339844 283.839844 62.238281 C 270.8125 59.695312 269.828125 57.339844 269.753906 57.078125 C 264.039062 35.683594 247.878906 35.683594 236.078125 35.683594 L 227.847656 35.683594 L 227.847656 90.675781 L 223.636719 90.675781 L 223.636719 18.851562 L 90.792969 18.851562 L 90.792969 95.671875 L 97.941406 95.671875 C 99.113281 100.03125 103.050781 103.269531 107.761719 103.269531 C 112.476562 103.269531 116.414062 100.03125 117.585938 95.671875 L 119.824219 95.671875 C 120.996094 100.03125 124.9375 103.269531 129.648438 103.269531 C 134.359375 103.269531 138.300781 100.03125 139.472656 95.671875 L 173.734375 95.671875 C 174.90625 100.03125 178.847656 103.269531 183.558594 103.269531 C 188.269531 103.269531 192.210938 100.03125 193.378906 95.671875 L 195.617188 95.671875 C 196.789062 100.03125 200.730469 103.269531 205.441406 103.269531 C 210.09375 103.269531 213.984375 100.109375 215.210938 95.835938 L 267.53125 95.835938 C 268.847656 99.96875 272.664062 102.988281 277.214844 102.988281 C 281.765625 102.988281 285.578125 99.96875 286.898438 95.835938 L 295.105469 95.835938 L 295.105469 73.003906 Z M 95.945312 24.015625 L 218.492188 24.015625 L 218.492188 90.507812 L 215.308594 90.507812 C 214.179688 86.082031 210.207031 82.789062 205.449219 82.789062 C 200.691406 82.789062 196.714844 86.082031 195.589844 90.507812 L 193.421875 90.507812 C 192.292969 86.082031 188.320312 82.789062 183.5625 82.789062 C 178.804688 82.789062 174.828125 86.082031 173.703125 90.507812 L 139.511719 90.507812 C 138.382812 86.082031 134.410156 82.789062 129.652344 82.789062 C 124.894531 82.789062 120.917969 86.082031 119.792969 90.507812 L 117.625 90.507812 C 116.496094 86.082031 112.523438 82.789062 107.765625 82.789062 C 103.007812 82.789062 99.03125 86.082031 97.90625 90.507812 L 95.945312 90.507812 Z M 107.765625 98.105469 C 104.972656 98.105469 102.703125 95.828125 102.703125 93.03125 C 102.703125 90.230469 104.972656 87.953125 107.765625 87.953125 C 110.554688 87.953125 112.828125 90.230469 112.828125 93.03125 C 112.828125 95.828125 110.554688 98.105469 107.765625 98.105469 Z M 129.652344 98.105469 C 126.859375 98.105469 124.589844 95.828125 124.589844 93.03125 C 124.589844 90.230469 126.859375 87.953125 129.652344 87.953125 C 132.441406 87.953125 134.714844 90.230469 134.714844 93.03125 C 134.714844 95.828125 132.441406 98.105469 129.652344 98.105469 Z M 183.558594 98.105469 C 180.769531 98.105469 178.5 95.828125 178.5 93.03125 C 178.5 90.230469 180.769531 87.953125 183.558594 87.953125 C 186.351562 87.953125 188.621094 90.230469 188.621094 93.03125 C 188.621094 95.828125 186.351562 98.105469 183.558594 98.105469 Z M 205.445312 98.105469 C 202.65625 98.105469 200.382812 95.828125 200.382812 93.03125 C 200.382812 90.230469 202.65625 87.953125 205.445312 87.953125 C 208.238281 87.953125 210.507812 90.230469 210.507812 93.03125 C 210.507812 95.828125 208.238281 98.105469 205.445312 98.105469 Z M 277.21875 97.820312 C 274.429688 97.820312 272.160156 95.542969 272.160156 92.746094 C 272.160156 89.945312 274.429688 87.667969 277.21875 87.667969 C 280.011719 87.667969 282.28125 89.945312 282.28125 92.746094 C 282.28125 95.542969 280.011719 97.820312 277.21875 97.820312 Z M 287.21875 90.675781 C 286.261719 86.019531 282.140625 82.507812 277.21875 82.507812 C 272.300781 82.507812 268.179688 86.019531 267.222656 90.675781 L 232.996094 90.675781 L 232.996094 40.847656 L 236.078125 40.847656 C 247.882812 40.847656 260.085938 40.847656 264.78125 58.417969 C 266.113281 63.40625 274.664062 65.710938 282.855469 67.304688 C 283.304688 67.394531 283.652344 67.464844 283.863281 67.511719 C 288.226562 68.503906 289.566406 69.292969 289.875 71.632812 L 288.003906 71.632812 C 286.578125 71.632812 285.429688 72.785156 285.429688 74.214844 C 285.429688 75.640625 286.578125 76.796875 288.003906 76.796875 L 289.960938 76.796875 L 289.960938 79.296875 L 288.003906 79.296875 C 286.578125 79.296875 285.429688 80.453125 285.429688 81.878906 C 285.429688 83.308594 286.578125 84.460938 288.003906 84.460938 L 289.960938 84.460938 L 289.960938 90.675781 Z M 287.21875 90.675781 "/>
<path style=" stroke:none;fill-rule:nonzero;fill:rgb(100%,28.235294%,0%);fill-opacity:1;" d="M 242.519531 69.917969 L 239.378906 69.917969 C 237.953125 69.917969 236.800781 71.074219 236.800781 72.5 C 236.800781 73.929688 237.953125 75.082031 239.378906 75.082031 L 242.519531 75.082031 C 243.941406 75.082031 245.09375 73.929688 245.09375 72.5 C 245.09375 71.074219 243.941406 69.917969 242.519531 69.917969 Z M 242.519531 69.917969 "/>
<path style=" stroke:none;fill-rule:nonzero;fill:rgb(100%,28.235294%,0%);fill-opacity:1;" d="M 259.464844 57.386719 L 241.394531 57.386719 L 241.394531 46.011719 C 241.394531 44.582031 240.246094 43.429688 238.820312 43.429688 C 237.398438 43.429688 236.246094 44.582031 236.246094 46.011719 L 236.246094 59.96875 C 236.246094 61.398438 237.398438 62.554688 238.820312 62.554688 L 259.464844 62.554688 C 260.886719 62.554688 262.039062 61.398438 262.039062 59.96875 C 262.039062 58.542969 260.882812 57.386719 259.464844 57.386719 Z M 259.464844 57.386719 "/>
<path style=" stroke:none;fill-rule:nonzero;fill:rgb(100%,28.235294%,0%);fill-opacity:1;" d="M 84.847656 32.015625 L 43.929688 32.015625 C 42.503906 32.015625 41.351562 33.171875 41.351562 34.597656 C 41.351562 36.027344 42.503906 37.179688 43.929688 37.179688 L 84.851562 37.179688 C 86.273438 37.179688 87.425781 36.027344 87.425781 34.597656 C 87.425781 33.171875 86.269531 32.015625 84.847656 32.015625 Z M 84.847656 32.015625 "/>
<path style=" stroke:none;fill-rule:nonzero;fill:rgb(100%,28.235294%,0%);fill-opacity:1;" d="M 84.847656 51.683594 L 55.367188 51.683594 C 53.945312 51.683594 52.792969 52.839844 52.792969 54.265625 C 52.792969 55.695312 53.945312 56.847656 55.367188 56.847656 L 84.847656 56.847656 C 86.269531 56.847656 87.421875 55.695312 87.421875 54.265625 C 87.421875 52.839844 86.269531 51.683594 84.847656 51.683594 Z M 84.847656 51.683594 "/>
<path style=" stroke:none;fill-rule:nonzero;fill:rgb(100%,28.235294%,0%);fill-opacity:1;" d="M 84.847656 71.351562 L 74.597656 71.351562 C 73.171875 71.351562 72.023438 72.507812 72.023438 73.933594 C 72.023438 75.363281 73.171875 76.515625 74.597656 76.515625 L 84.847656 76.515625 C 86.269531 76.515625 87.421875 75.363281 87.421875 73.933594 C 87.421875 72.507812 86.269531 71.351562 84.847656 71.351562 Z M 84.847656 71.351562 "/>
<path style=" stroke:none;fill-rule:nonzero;fill:rgb(100%,28.235294%,0%);fill-opacity:1;" d="M 29.898438 205.46875 L 18.796875 162.90625 L 27.960938 162.90625 L 36.242188 195.132812 L 45.730469 162.90625 L 53.160156 162.90625 L 62.589844 195.132812 L 70.957031 162.90625 L 80.09375 162.90625 L 68.992188 205.46875 L 57.652344 205.46875 L 49.429688 179.164062 L 41.234375 205.46875 Z M 105.292969 206.054688 C 95.6875 206.054688 88.757812 200.195312 88.757812 190.296875 C 88.757812 180.460938 95.628906 174.601562 105.292969 174.601562 C 115.011719 174.601562 121.855469 180.460938 121.855469 190.296875 C 121.855469 200.195312 114.984375 206.054688 105.292969 206.054688 Z M 105.203125 199.3125 C 110.109375 199.3125 113.457031 195.71875 113.457031 190.296875 C 113.457031 184.878906 110.109375 181.285156 105.203125 181.285156 C 100.476562 181.285156 97.15625 184.878906 97.15625 190.296875 C 97.15625 195.71875 100.476562 199.3125 105.203125 199.3125 Z M 147.671875 206.054688 C 138.070312 206.054688 131.136719 200.195312 131.136719 190.296875 C 131.136719 180.460938 138.011719 174.601562 147.671875 174.601562 C 157.394531 174.601562 164.238281 180.460938 164.238281 190.296875 C 164.238281 200.195312 157.367188 206.054688 147.671875 206.054688 Z M 147.585938 199.3125 C 152.488281 199.3125 155.839844 195.71875 155.839844 190.296875 C 155.839844 184.878906 152.488281 181.285156 147.585938 181.285156 C 142.855469 181.285156 139.539062 184.878906 139.539062 190.296875 C 139.539062 195.71875 142.855469 199.3125 147.585938 199.3125 Z M 191.199219 206.054688 C 182.09375 206.054688 174.988281 201.667969 173.695312 193.6875 L 182.800781 191.59375 C 183.386719 196.367188 186.882812 198.839844 191.550781 198.839844 C 195.136719 198.839844 197.984375 197.25 197.957031 193.65625 C 197.925781 189.648438 193.226562 188.382812 188.058594 186.792969 C 181.832031 184.847656 175.164062 182.550781 175.164062 174.71875 C 175.164062 166.792969 181.625 162.316406 190.144531 162.316406 C 197.601562 162.316406 205.121094 165.351562 206.824219 173.507812 L 198.308594 175.628906 C 197.515625 171.390625 194.667969 169.535156 190.671875 169.535156 C 187.117188 169.535156 184.09375 171.007812 184.09375 174.511719 C 184.09375 177.78125 188.261719 178.871094 193.078125 180.3125 C 199.484375 182.257812 207.058594 184.730469 207.058594 193.214844 C 207.058594 202.257812 199.511719 206.054688 191.199219 206.054688 Z M 237.808594 174.601562 C 244.566406 174.601562 248.617188 178.371094 248.617188 185.941406 L 248.617188 205.46875 L 240.128906 205.46875 L 240.128906 187.324219 C 240.128906 182.878906 237.664062 181.40625 234.636719 181.40625 C 231.496094 181.40625 228.058594 182.964844 228 188.769531 L 228 205.46875 L 219.542969 205.46875 L 219.542969 160.226562 L 228 160.226562 L 228 178.8125 C 230.144531 176.191406 233.523438 174.601562 237.808594 174.601562 Z M 266.535156 170.652344 C 263.863281 170.652344 261.628906 168.472656 261.628906 165.761719 C 261.628906 163.082031 263.863281 160.902344 266.535156 160.902344 C 269.148438 160.902344 271.378906 163.082031 271.378906 165.761719 C 271.378906 168.472656 269.148438 170.652344 266.535156 170.652344 Z M 262.21875 205.46875 L 262.21875 175.1875 L 270.734375 175.1875 L 270.734375 205.46875 Z M 302.660156 174.601562 C 310.621094 174.601562 317.199219 180.460938 317.199219 190.386719 C 317.199219 200.3125 310.621094 206.175781 302.660156 206.175781 C 298.722656 206.175781 295.199219 204.644531 293.410156 201.875 L 293.410156 220.195312 L 284.949219 220.195312 L 284.949219 175.191406 L 292.96875 175.191406 L 293.203125 179.253906 C 294.875 176.25 298.546875 174.601562 302.660156 174.601562 Z M 300.75 199.132812 C 305.1875 199.132812 308.738281 195.894531 308.738281 190.386719 C 308.738281 184.878906 305.1875 181.640625 300.75 181.640625 C 296.226562 181.640625 292.703125 185.085938 292.703125 190.386719 C 292.703125 195.6875 296.226562 199.132812 300.75 199.132812 Z M 300.75 199.132812 "/>
</g>
</svg>
